<svg width="300" height="40" viewBox="0 0 300 40" fill="#000000" xmlns="http://www.w3.org/2000/svg">
<g id="Logo">
<path d="M1451 2685 c11 -10 149 -63 149 -57 0 4 -31 19 -68 35 -64 25 -91 33
-81 22z"/>
<path d="M1910 2668 c-25 -11 -56 -24 -69 -29 -13 -5 -22 -12 -19 -14 4 -4
146 51 157 61 12 11 -29 0 -69 -18z"/>
<path d="M1692 2628 c2 -15 10 -23 23 -23 30 0 27 39 -3 43 -20 3 -23 0 -20
-20z m36 0 c-6 -18 -28 -21 -28 -4 0 9 7 16 16 16 9 0 14 -5 12 -12z"/>
<path d="M1615 2593 c-10 -43 31 -99 80 -109 60 -11 114 35 115 99 0 20 -4 37
-10 37 -5 0 -10 -6 -10 -14 0 -22 -40 -46 -78 -46 -24 0 -42 8 -62 29 l-29 28
-6 -24z m37 -23 c29 -27 87 -26 122 1 l26 20 0 -21 c0 -28 -52 -80 -80 -80
-37 0 -77 28 -89 61 -16 48 -13 51 21 19z"/>
<path d="M1250 2580 c0 -6 58 -10 155 -10 97 0 155 4 155 10 0 6 -58 10 -155
10 -97 0 -155 -4 -155 -10z"/>
<path d="M1870 2583 c0 -5 70 -10 155 -11 108 -3 155 -1 155 7 0 8 -49 11
-155 11 -85 0 -155 -3 -155 -7z"/>
<path d="M1160 2553 c0 -5 7 -17 15 -27 8 -11 15 -32 15 -48 0 -15 5 -28 10
-28 15 0 12 35 -7 75 -15 31 -34 47 -33 28z"/>
<path d="M1220 2539 c-7 -11 -10 -23 -7 -25 2 -2 9 7 15 21 14 30 7 33 -8 4z"/>
<path d="M1890 2505 c0 -30 5 -55 10 -55 6 0 10 25 10 55 0 30 -4 55 -10 55
-5 0 -10 -25 -10 -55z"/>
<path d="M1940 2535 c-19 -21 -21 -25 -7 -25 9 0 17 -5 17 -11 0 -6 -7 -8 -16
-5 -8 3 -12 2 -9 -4 3 -6 12 -10 18 -10 7 0 18 -9 25 -21 7 -12 16 -19 18 -16
7 6 -25 69 -38 78 -6 4 0 14 13 23 13 9 19 16 13 16 -6 0 -21 -11 -34 -25z"/>
<path d="M1267 2532 c-10 -10 -17 -28 -17 -40 0 -23 25 -52 45 -52 41 0 59 64
27 93 -24 22 -35 21 -55 -1z m48 -37 c0 -33 -3 -40 -20 -40 -15 0 -21 8 -23
28 -5 39 5 59 25 55 14 -2 18 -13 18 -43z"/>
<path d="M1364 2525 c-10 -15 -14 -34 -10 -49 6 -26 34 -42 49 -27 6 6 2 9 -9
8 -26 -3 -31 48 -8 74 9 11 12 19 6 19 -6 0 -19 -11 -28 -25z"/>
<path d="M1473 2543 c-7 -2 -13 -9 -13 -14 0 -6 8 -5 20 1 29 16 40 4 40 -41
0 -21 5 -39 11 -39 6 0 8 16 6 41 -5 50 -27 68 -64 52z"/>
<path d="M2017 2532 c-10 -10 -17 -28 -17 -40 0 -23 25 -52 45 -52 41 0 59 64
27 93 -24 22 -35 21 -55 -1z m48 -37 c0 -33 -3 -40 -20 -40 -15 0 -21 8 -23
28 -5 39 5 59 25 55 14 -2 18 -13 18 -43z"/>
<path d="M2203 2543 c-7 -2 -13 -9 -13 -14 0 -6 8 -5 20 1 29 16 40 4 40 -41
0 -21 5 -39 10 -39 13 0 13 56 0 81 -10 18 -31 23 -57 12z"/>
<path d="M1418 2496 c2 -24 -2 -54 -8 -67 -11 -21 -11 -22 3 -9 21 21 34 120
15 120 -9 0 -12 -12 -10 -44z"/>
<path d="M1573 2530 c-13 -5 -23 -12 -23 -15 0 -9 16 -5 36 10 22 16 19 18
-13 5z"/>
<path d="M1826 2531 c5 -5 20 -12 34 -15 l25 -7 -25 15 c-28 17 -50 21 -34 7z"/>
<path d="M2105 2496 c0 -24 3 -48 8 -52 4 -4 7 16 7 44 0 29 -4 52 -8 52 -4 0
-7 -20 -7 -44z"/>
<path d="M2136 2531 c-4 -5 3 -7 14 -4 23 6 26 13 6 13 -8 0 -17 -4 -20 -9z"/>
<path d="M1469 2499 c-22 -22 -21 -37 4 -53 12 -7 20 -7 28 1 8 8 7 11 -7 10
-11 -1 -20 6 -22 17 -3 13 0 16 10 11 7 -5 10 -5 6 0 -4 4 -3 14 3 22 18 21 1
15 -22 -8z"/>
<path d="M2199 2499 c-22 -22 -21 -37 4 -53 12 -8 20 -7 29 2 11 11 10 12 -4
7 -29 -11 -36 25 -9 47 13 10 18 18 12 18 -6 0 -20 -9 -32 -21z"/>
<path d="M1515 2390 c-43 -44 -77 -81 -74 -84 2 -2 42 34 89 80 47 46 80 84
75 84 -6 0 -46 -36 -90 -80z"/>
<path d="M1650 2446 c-5 -15 -20 -50 -31 -77 -12 -27 -19 -52 -17 -55 3 -2 19
30 37 72 17 43 29 79 26 82 -2 3 -9 -7 -15 -22z"/>
<path d="M1782 2398 c17 -40 35 -77 40 -83 5 -5 2 8 -7 30 -9 22 -24 59 -33
83 -9 23 -19 42 -23 42 -4 0 6 -33 23 -72z"/>
<path d="M1900 2385 c46 -46 86 -82 89 -79 6 6 -150 164 -164 164 -5 0 28 -38
75 -85z"/>
<path d="M1714 2270 c0 -91 2 -128 3 -82 2 45 2 119 0 165 -1 45 -3 8 -3 -83z"/>
<path d="M1360 2410 c20 -13 33 -13 25 0 -3 6 -14 10 -23 10 -15 0 -15 -2 -2
-10z"/>
</g>
</svg>
